<svg width="171" height="53" viewBox="0 0 171 53" fill="none" xmlns="http://www.w3.org/2000/svg">
<rect x="0.657692" y="0.65757" width="169.685" height="51.3" rx="7.23462" fill="black"/>
<path fill-rule="evenodd" clip-rule="evenodd" d="M34.3958 26.7634C34.4245 24.5319 35.5944 22.4706 37.4956 21.3018C36.2908 19.5812 34.3452 18.5293 32.2457 18.4637C30.0368 18.2318 27.8954 19.7854 26.7699 19.7854C25.6225 19.7854 23.8895 18.4867 22.0233 18.5251C19.5679 18.6044 17.3343 19.9666 16.1397 22.1133C13.5957 26.5177 15.4933 32.9908 17.9302 36.551C19.1494 38.2944 20.5743 40.2417 22.4388 40.1727C24.2634 40.097 24.9448 39.0092 27.1471 39.0092C29.329 39.0092 29.9683 40.1727 31.8707 40.1288C33.8285 40.097 35.062 38.3777 36.2384 36.6178C37.1144 35.3756 37.7885 34.0027 38.2357 32.55C35.9105 31.5665 34.3985 29.2881 34.3958 26.7634Z" fill="white"/>
<path fill-rule="evenodd" clip-rule="evenodd" d="M30.8027 16.1221C31.8702 14.8407 32.3961 13.1936 32.2687 11.5306C30.6379 11.7019 29.1314 12.4814 28.0495 13.7137C26.9812 14.9295 26.44 16.5201 26.5451 18.1352C28.1978 18.1522 29.7671 17.4103 30.8027 16.1221Z" fill="white"/>
<path d="M55.1633 16.9797V10.4212H57.0574C57.5783 10.4212 58.0164 10.4961 58.3715 10.6461C58.7267 10.7882 59.0147 11.0013 59.2357 11.2854C59.4646 11.5616 59.6264 11.901 59.7211 12.3035C59.8237 12.6981 59.875 13.148 59.875 13.6531C59.875 14.174 59.8198 14.6199 59.7093 14.9908C59.6067 15.3539 59.4725 15.6577 59.3067 15.9024C59.141 16.147 58.9516 16.3404 58.7385 16.4825C58.5333 16.6245 58.3242 16.735 58.1111 16.8139C57.898 16.885 57.6967 16.9323 57.5073 16.956C57.3179 16.9718 57.16 16.9797 57.0338 16.9797H55.1633ZM54.0386 9.4741V17.9268H56.9391C57.6415 17.9268 58.2492 17.8281 58.7622 17.6308C59.2752 17.4335 59.6974 17.1494 60.0289 16.7784C60.3604 16.3996 60.605 15.9379 60.7629 15.3933C60.9207 14.8409 60.9997 14.2095 60.9997 13.4992C60.9997 12.1417 60.6484 11.1315 59.946 10.4685C59.2436 9.80557 58.2413 9.4741 56.9391 9.4741H54.0386ZM63.1791 14.8724C63.1791 14.5015 63.2265 14.174 63.3212 13.8898C63.4238 13.5978 63.5619 13.3532 63.7355 13.1559C63.9092 12.9585 64.1104 12.8086 64.3393 12.706C64.5761 12.6034 64.8247 12.5521 65.0851 12.5521C65.3456 12.5521 65.5902 12.6034 65.8191 12.706C66.0559 12.8086 66.2611 12.9585 66.4347 13.1559C66.6083 13.3532 66.7425 13.5978 66.8372 13.8898C66.9398 14.174 66.9911 14.5015 66.9911 14.8724C66.9911 15.2434 66.9398 15.5748 66.8372 15.8669C66.7425 16.151 66.6083 16.3917 66.4347 16.589C66.2611 16.7784 66.0559 16.9244 65.8191 17.027C65.5902 17.1296 65.3456 17.1809 65.0851 17.1809C64.8247 17.1809 64.5761 17.1296 64.3393 17.027C64.1104 16.9244 63.9092 16.7784 63.7355 16.589C63.5619 16.3917 63.4238 16.151 63.3212 15.8669C63.2265 15.5748 63.1791 15.2434 63.1791 14.8724ZM62.1137 14.8724C62.1137 15.3223 62.1768 15.7406 62.3031 16.1273C62.4294 16.514 62.6188 16.8534 62.8713 17.1454C63.1239 17.4295 63.4356 17.6545 63.8066 17.8202C64.1775 17.9781 64.6037 18.057 65.0851 18.057C65.5744 18.057 66.0006 17.9781 66.3637 17.8202C66.7346 17.6545 67.0464 17.4295 67.2989 17.1454C67.5515 16.8534 67.7409 16.514 67.8672 16.1273C67.9934 15.7406 68.0566 15.3223 68.0566 14.8724C68.0566 14.4226 67.9934 14.0043 67.8672 13.6176C67.7409 13.2229 67.5515 12.8836 67.2989 12.5994C67.0464 12.3074 66.7346 12.0786 66.3637 11.9128C66.0006 11.7471 65.5744 11.6642 65.0851 11.6642C64.6037 11.6642 64.1775 11.7471 63.8066 11.9128C63.4356 12.0786 63.1239 12.3074 62.8713 12.5994C62.6188 12.8836 62.4294 13.2229 62.3031 13.6176C62.1768 14.0043 62.1137 14.4226 62.1137 14.8724ZM75.5411 17.9268L77.4944 11.8063H76.4526L75.0794 16.8139H75.0557L73.7771 11.8063H72.6762L71.445 16.8139H71.4213L70.0362 11.8063H68.9234L70.8886 17.9268H71.9777L73.2089 13.0611H73.2326L74.4756 17.9268H75.5411ZM78.6879 11.8063V17.9268H79.6942V14.4699C79.6942 14.1937 79.7297 13.9411 79.8007 13.7123C79.8796 13.4755 79.9941 13.2703 80.144 13.0967C80.294 12.923 80.4794 12.7889 80.7004 12.6942C80.9293 12.5994 81.1976 12.5521 81.5054 12.5521C81.8922 12.5521 82.196 12.6626 82.417 12.8836C82.638 13.1046 82.7485 13.4045 82.7485 13.7833V17.9268H83.7547V13.9017C83.7547 13.5702 83.7192 13.2703 83.6482 13.002C83.5851 12.7257 83.4706 12.489 83.3049 12.2916C83.1391 12.0943 82.9221 11.9404 82.6538 11.8299C82.3854 11.7195 82.05 11.6642 81.6475 11.6642C80.7399 11.6642 80.0769 12.0351 79.6586 12.777H79.635V11.8063H78.6879ZM85.5621 9.4741V17.9268H86.5683V9.4741H85.5621ZM89.098 14.8724C89.098 14.5015 89.1453 14.174 89.24 13.8898C89.3426 13.5978 89.4807 13.3532 89.6544 13.1559C89.828 12.9585 90.0293 12.8086 90.2581 12.706C90.4949 12.6034 90.7435 12.5521 91.004 12.5521C91.2644 12.5521 91.5091 12.6034 91.7379 12.706C91.9747 12.8086 92.1799 12.9585 92.3535 13.1559C92.5272 13.3532 92.6613 13.5978 92.756 13.8898C92.8586 14.174 92.9099 14.5015 92.9099 14.8724C92.9099 15.2434 92.8586 15.5748 92.756 15.8669C92.6613 16.151 92.5272 16.3917 92.3535 16.589C92.1799 16.7784 91.9747 16.9244 91.7379 17.027C91.5091 17.1296 91.2644 17.1809 91.004 17.1809C90.7435 17.1809 90.4949 17.1296 90.2581 17.027C90.0293 16.9244 89.828 16.7784 89.6544 16.589C89.4807 16.3917 89.3426 16.151 89.24 15.8669C89.1453 15.5748 89.098 15.2434 89.098 14.8724ZM88.0325 14.8724C88.0325 15.3223 88.0956 15.7406 88.2219 16.1273C88.3482 16.514 88.5376 16.8534 88.7902 17.1454C89.0427 17.4295 89.3545 17.6545 89.7254 17.8202C90.0963 17.9781 90.5225 18.057 91.004 18.057C91.4933 18.057 91.9195 17.9781 92.2825 17.8202C92.6534 17.6545 92.9652 17.4295 93.2177 17.1454C93.4703 16.8534 93.6597 16.514 93.786 16.1273C93.9123 15.7406 93.9754 15.3223 93.9754 14.8724C93.9754 14.4226 93.9123 14.0043 93.786 13.6176C93.6597 13.2229 93.4703 12.8836 93.2177 12.5994C92.9652 12.3074 92.6534 12.0786 92.2825 11.9128C91.9195 11.7471 91.4933 11.6642 91.004 11.6642C90.5225 11.6642 90.0963 11.7471 89.7254 11.9128C89.3545 12.0786 89.0427 12.3074 88.7902 12.5994C88.5376 12.8836 88.3482 13.2229 88.2219 13.6176C88.0956 14.0043 88.0325 14.4226 88.0325 14.8724ZM100.821 17.9031C100.647 18.0057 100.406 18.057 100.098 18.057C99.838 18.057 99.6289 17.986 99.471 17.8439C99.3211 17.6939 99.2461 17.4532 99.2461 17.1217C98.9699 17.4532 98.6463 17.6939 98.2754 17.8439C97.9123 17.986 97.5177 18.057 97.0915 18.057C96.8153 18.057 96.5509 18.0254 96.2983 17.9623C96.0537 17.8991 95.8406 17.8005 95.6591 17.6663C95.4775 17.5321 95.3315 17.3585 95.221 17.1454C95.1184 16.9244 95.0671 16.66 95.0671 16.3522C95.0671 16.005 95.1263 15.7209 95.2447 15.4999C95.3631 15.2789 95.517 15.1013 95.7064 14.9671C95.9037 14.8251 96.1247 14.7185 96.3694 14.6475C96.6219 14.5765 96.8784 14.5173 97.1389 14.4699C97.4151 14.4147 97.6755 14.3752 97.9202 14.3515C98.1728 14.32 98.3937 14.2805 98.5832 14.2332C98.7726 14.1779 98.9225 14.1029 99.033 14.0082C99.1435 13.9056 99.1988 13.7596 99.1988 13.5702C99.1988 13.3492 99.1554 13.1716 99.0685 13.0375C98.9896 12.9033 98.8831 12.8007 98.7489 12.7297C98.6226 12.6586 98.4766 12.6113 98.3109 12.5876C98.153 12.5639 97.9952 12.5521 97.8373 12.5521C97.4112 12.5521 97.056 12.635 96.7719 12.8007C96.4878 12.9585 96.3339 13.2624 96.3102 13.7123H95.3039C95.3197 13.3334 95.3986 13.0138 95.5407 12.7533C95.6827 12.4929 95.8722 12.2838 96.1089 12.1259C96.3457 11.9602 96.614 11.8418 96.9139 11.7708C97.2217 11.6997 97.5493 11.6642 97.8965 11.6642C98.1728 11.6642 98.445 11.6839 98.7134 11.7234C98.9896 11.7629 99.2382 11.8457 99.4592 11.972C99.6802 12.0904 99.8578 12.2601 99.9919 12.4811C100.126 12.702 100.193 12.9901 100.193 13.3453V16.4943C100.193 16.7311 100.205 16.9047 100.229 17.0152C100.26 17.1257 100.355 17.1809 100.513 17.1809C100.6 17.1809 100.702 17.1612 100.821 17.1217V17.9031ZM99.1869 14.7659C99.0606 14.8606 98.8949 14.9316 98.6897 14.979C98.4845 15.0184 98.2675 15.054 98.0386 15.0855C97.8176 15.1092 97.5927 15.1408 97.3638 15.1802C97.1349 15.2118 96.9297 15.267 96.7482 15.346C96.5667 15.4249 96.4167 15.5393 96.2983 15.6893C96.1878 15.8313 96.1326 16.0287 96.1326 16.2812C96.1326 16.4469 96.1642 16.589 96.2273 16.7074C96.2983 16.8179 96.3852 16.9087 96.4878 16.9797C96.5982 17.0507 96.7245 17.102 96.8666 17.1336C97.0086 17.1652 97.1586 17.1809 97.3164 17.1809C97.6479 17.1809 97.932 17.1375 98.1688 17.0507C98.4056 16.956 98.5989 16.8416 98.7489 16.7074C98.8989 16.5653 99.0093 16.4154 99.0804 16.2575C99.1514 16.0918 99.1869 15.9379 99.1869 15.7958V14.7659ZM102.728 14.9198C102.728 14.6199 102.759 14.3279 102.823 14.0437C102.886 13.7596 102.988 13.5071 103.13 13.2861C103.272 13.0651 103.462 12.8875 103.699 12.7533C103.935 12.6192 104.224 12.5521 104.563 12.5521C104.91 12.5521 105.206 12.6192 105.451 12.7533C105.695 12.8796 105.893 13.0493 106.043 13.2624C106.201 13.4755 106.315 13.7241 106.386 14.0082C106.457 14.2845 106.493 14.5725 106.493 14.8724C106.493 15.1566 106.457 15.4367 106.386 15.713C106.323 15.9892 106.216 16.2378 106.066 16.4588C105.916 16.6719 105.723 16.8455 105.486 16.9797C105.25 17.1139 104.961 17.1809 104.622 17.1809C104.298 17.1809 104.014 17.1178 103.77 16.9915C103.533 16.8652 103.336 16.6956 103.178 16.4825C103.028 16.2694 102.913 16.0287 102.834 15.7603C102.763 15.4841 102.728 15.2039 102.728 14.9198ZM107.463 17.9268V9.4741H106.457V12.6231H106.433C106.323 12.4416 106.185 12.2916 106.019 12.1733C105.861 12.047 105.691 11.9483 105.51 11.8773C105.328 11.7984 105.147 11.7431 104.965 11.7116C104.784 11.68 104.614 11.6642 104.456 11.6642C103.991 11.6642 103.58 11.751 103.225 11.9247C102.878 12.0904 102.586 12.3193 102.349 12.6113C102.12 12.8954 101.947 13.2308 101.828 13.6176C101.718 14.0043 101.662 14.4147 101.662 14.8488C101.662 15.2828 101.722 15.6932 101.84 16.08C101.958 16.4667 102.132 16.8061 102.361 17.0981C102.598 17.3901 102.89 17.6229 103.237 17.7965C103.592 17.9702 104.006 18.057 104.48 18.057C104.906 18.057 105.297 17.982 105.652 17.8321C106.007 17.6821 106.268 17.4374 106.433 17.0981H106.457V17.9268H107.463ZM113.514 14.8724C113.514 14.5015 113.561 14.174 113.656 13.8898C113.759 13.5978 113.897 13.3532 114.07 13.1559C114.244 12.9585 114.445 12.8086 114.674 12.706C114.911 12.6034 115.159 12.5521 115.42 12.5521C115.68 12.5521 115.925 12.6034 116.154 12.706C116.391 12.8086 116.596 12.9585 116.769 13.1559C116.943 13.3532 117.077 13.5978 117.172 13.8898C117.275 14.174 117.326 14.5015 117.326 14.8724C117.326 15.2434 117.275 15.5748 117.172 15.8669C117.077 16.151 116.943 16.3917 116.769 16.589C116.596 16.7784 116.391 16.9244 116.154 17.027C115.925 17.1296 115.68 17.1809 115.42 17.1809C115.159 17.1809 114.911 17.1296 114.674 17.027C114.445 16.9244 114.244 16.7784 114.07 16.589C113.897 16.3917 113.759 16.151 113.656 15.8669C113.561 15.5748 113.514 15.2434 113.514 14.8724ZM112.448 14.8724C112.448 15.3223 112.512 15.7406 112.638 16.1273C112.764 16.514 112.954 16.8534 113.206 17.1454C113.459 17.4295 113.77 17.6545 114.141 17.8202C114.512 17.9781 114.938 18.057 115.42 18.057C115.909 18.057 116.335 17.9781 116.698 17.8202C117.069 17.6545 117.381 17.4295 117.634 17.1454C117.886 16.8534 118.076 16.514 118.202 16.1273C118.328 15.7406 118.391 15.3223 118.391 14.8724C118.391 14.4226 118.328 14.0043 118.202 13.6176C118.076 13.2229 117.886 12.8836 117.634 12.5994C117.381 12.3074 117.069 12.0786 116.698 11.9128C116.335 11.7471 115.909 11.6642 115.42 11.6642C114.938 11.6642 114.512 11.7471 114.141 11.9128C113.77 12.0786 113.459 12.3074 113.206 12.5994C112.954 12.8836 112.764 13.2229 112.638 13.6176C112.512 14.0043 112.448 14.4226 112.448 14.8724ZM119.815 11.8063V17.9268H120.821V14.4699C120.821 14.1937 120.856 13.9411 120.927 13.7123C121.006 13.4755 121.121 13.2703 121.271 13.0967C121.421 12.923 121.606 12.7889 121.827 12.6942C122.056 12.5994 122.324 12.5521 122.632 12.5521C123.019 12.5521 123.323 12.6626 123.544 12.8836C123.765 13.1046 123.875 13.4045 123.875 13.7833V17.9268H124.881V13.9017C124.881 13.5702 124.846 13.2703 124.775 13.002C124.712 12.7257 124.597 12.489 124.432 12.2916C124.266 12.0943 124.049 11.9404 123.78 11.8299C123.512 11.7195 123.177 11.6642 122.774 11.6642C121.867 11.6642 121.204 12.0351 120.785 12.777H120.762V11.8063H119.815ZM131.558 11.8063V9.97131H130.552V11.8063H129.51V12.6942H130.552V16.589C130.552 16.8731 130.579 17.102 130.635 17.2756C130.69 17.4493 130.773 17.5834 130.883 17.6782C131.002 17.7729 131.152 17.8399 131.333 17.8794C131.523 17.911 131.748 17.9268 132.008 17.9268H132.777V17.0389H132.316C132.158 17.0389 132.028 17.0349 131.925 17.027C131.83 17.0113 131.755 16.9836 131.7 16.9442C131.645 16.9047 131.605 16.8495 131.582 16.7784C131.566 16.7074 131.558 16.6127 131.558 16.4943V12.6942H132.777V11.8063H131.558ZM134.132 9.4741V17.9268H135.138V14.4699C135.138 14.1937 135.174 13.9411 135.245 13.7123C135.324 13.4755 135.438 13.2703 135.588 13.0967C135.738 12.923 135.924 12.7889 136.145 12.6942C136.374 12.5994 136.642 12.5521 136.95 12.5521C137.336 12.5521 137.64 12.6626 137.861 12.8836C138.082 13.1046 138.193 13.4045 138.193 13.7833V17.9268H139.199V13.9017C139.199 13.5702 139.163 13.2703 139.092 13.002C139.029 12.7257 138.915 12.489 138.749 12.2916C138.583 12.0943 138.366 11.9404 138.098 11.8299C137.83 11.7195 137.494 11.6642 137.092 11.6642C136.91 11.6642 136.721 11.6839 136.523 11.7234C136.334 11.7629 136.149 11.826 135.967 11.9128C135.793 11.9917 135.636 12.0983 135.494 12.2325C135.351 12.3587 135.241 12.5166 135.162 12.706H135.138V9.4741H134.132ZM145.197 14.2805H141.681C141.697 14.0437 141.748 13.8228 141.835 13.6176C141.922 13.4045 142.04 13.219 142.19 13.0611C142.34 12.9033 142.518 12.781 142.723 12.6942C142.936 12.5994 143.173 12.5521 143.433 12.5521C143.686 12.5521 143.915 12.5994 144.12 12.6942C144.333 12.781 144.514 12.9033 144.664 13.0611C144.822 13.2111 144.945 13.3926 145.031 13.6057C145.126 13.8188 145.181 14.0437 145.197 14.2805ZM146.168 15.9853H145.173C145.087 16.3878 144.905 16.6877 144.629 16.885C144.361 17.0823 144.013 17.1809 143.587 17.1809C143.256 17.1809 142.968 17.1257 142.723 17.0152C142.478 16.9047 142.277 16.7587 142.119 16.5772C141.961 16.3878 141.847 16.1747 141.776 15.9379C141.705 15.6932 141.673 15.4367 141.681 15.1684H146.263C146.278 14.7975 146.243 14.4068 146.156 13.9964C146.077 13.586 145.927 13.2072 145.706 12.8599C145.493 12.5126 145.205 12.2285 144.842 12.0075C144.487 11.7786 144.037 11.6642 143.492 11.6642C143.074 11.6642 142.687 11.7431 142.332 11.901C141.985 12.0588 141.681 12.2798 141.421 12.5639C141.168 12.8481 140.971 13.1835 140.829 13.5702C140.687 13.9569 140.616 14.3831 140.616 14.8488C140.631 15.3144 140.698 15.7445 140.817 16.1391C140.943 16.5338 141.129 16.8731 141.373 17.1573C141.618 17.4414 141.918 17.6624 142.273 17.8202C142.636 17.9781 143.062 18.057 143.552 18.057C144.246 18.057 144.822 17.8834 145.28 17.5361C145.738 17.1888 146.034 16.6719 146.168 15.9853Z" fill="white"/>
<path d="M75.3714 28.5999C78.3939 28.5999 80.3863 30.9892 80.3863 34.6797C80.3863 38.3806 78.4056 40.7583 75.4164 40.7583C73.8713 40.8391 72.416 40.0298 71.6694 38.6747H71.6128V44.5734H69.1683V28.7245H71.5345V30.7053H71.5794C72.3592 29.3587 73.8161 28.5498 75.3714 28.5999ZM88.479 28.5999C91.5016 28.5999 93.4939 30.9892 93.4939 34.6797C93.4939 38.3806 91.5132 40.7583 88.524 40.7583C86.9789 40.8391 85.5236 40.0298 84.7769 38.6747H84.7204V44.5734H82.2759V28.7245H84.642V30.7053H84.687C85.4668 29.3587 86.9237 28.5498 88.479 28.5999ZM106.029 24.0269C109.48 24.0269 111.846 25.9627 111.926 28.781H109.458C109.311 27.1509 107.963 26.1669 105.994 26.1669C104.025 26.1669 102.677 27.1625 102.677 28.6114C102.677 29.7663 103.538 30.4458 105.643 30.966L107.443 31.4079C110.794 32.2004 112.187 33.5467 112.187 35.9359C112.187 38.9919 109.753 40.9059 105.881 40.9059C102.258 40.9059 99.8126 39.0368 99.6546 36.0824L102.157 36.0825C102.338 37.7023 103.912 38.7659 106.062 38.7659C108.122 38.7659 109.605 37.7023 109.605 36.2417C109.605 34.9738 108.711 34.2147 106.594 33.6944L104.477 33.1845C101.477 32.46 100.085 31.0572 100.085 28.781C100.085 25.9627 102.541 24.0269 106.029 24.0269ZM126.687 28.5781C130.14 28.5781 132.336 30.9327 132.336 34.6797C132.336 38.4371 130.151 40.7814 126.687 40.7814C123.224 40.7814 121.039 38.4371 121.039 34.6797C121.039 30.9327 123.246 28.5781 126.687 28.5781ZM146.482 28.5781C149.777 28.5781 151.849 30.8415 151.849 34.4524V35.2899H143.437V35.4376C143.359 36.3242 143.665 37.2019 144.278 37.8472C144.891 38.4926 145.752 38.8436 146.641 38.8109C147.827 38.922 148.946 38.2408 149.391 37.1358L151.713 37.1358C151.384 39.2977 149.278 40.7814 146.585 40.7814C143.12 40.7814 140.97 38.4602 140.97 34.7363C140.97 31.0008 143.132 28.5781 146.482 28.5781ZM117.462 25.9062V28.7245H119.727V30.6604H117.462V37.2257C117.462 38.2457 117.916 38.721 118.911 38.721C119.18 38.7163 119.449 38.6974 119.716 38.6644V40.5887C119.268 40.6723 118.813 40.7102 118.358 40.7017C115.947 40.7017 115.006 39.7961 115.006 37.4864V30.6604H113.275V28.7245H115.006V25.9062H117.462ZM61.7526 24.2992L67.65 40.6337H64.9678L63.4739 36.2186H57.2476L55.7524 40.6337H53.1152L59.0126 24.2992H61.7526ZM139.604 28.5999C139.886 28.5989 140.167 28.6295 140.442 28.6911V30.9776C140.086 30.869 139.715 30.8191 139.344 30.8299C138.625 30.8008 137.929 31.0872 137.44 31.6139C136.95 32.1407 136.715 32.8552 136.796 33.5699V40.6336H134.352V28.7245H136.683V30.7515H136.74C137.065 29.4467 138.261 28.5486 139.604 28.5999ZM126.687 30.5923C124.706 30.5923 123.529 32.1209 123.529 34.6797C123.529 37.2604 124.706 38.7659 126.687 38.7659C128.668 38.7659 129.846 37.2604 129.846 34.6797C129.846 32.1094 128.668 30.5923 126.687 30.5923ZM74.7266 30.6835C72.8588 30.6835 71.6025 32.302 71.6025 34.6797C71.6025 37.0793 72.8588 38.6863 74.7266 38.6863C76.6277 38.6863 77.8737 37.1127 77.8737 34.6797C77.8737 32.2686 76.6277 30.6835 74.7266 30.6835ZM87.8342 30.6835C85.9664 30.6835 84.7101 32.302 84.7101 34.6797C84.7101 37.0793 85.9664 38.6863 87.8342 38.6863C89.7353 38.6863 90.9814 37.1127 90.9814 34.6797C90.9814 32.2686 89.7353 30.6835 87.8342 30.6835ZM60.3949 27.0161H60.3268L57.8925 34.1813H62.8278L60.3949 27.0161ZM146.482 30.5589C145.678 30.5541 144.905 30.8707 144.336 31.4383C143.766 32.0058 143.447 32.7774 143.449 33.5815H149.403C149.447 32.7848 149.157 32.0057 148.603 31.4319C148.048 30.8582 147.28 30.5417 146.482 30.5589Z" fill="white"/>
<rect x="0.657692" y="0.65757" width="169.685" height="51.3" rx="7.23462" stroke="#A6A6A6" stroke-width="1.31538"/>
</svg>
