<svg width="171" height="53" viewBox="0 0 171 53" fill="none" xmlns="http://www.w3.org/2000/svg">
<rect x="0.657692" y="0.65757" width="169.685" height="51.3" rx="7.23462" fill="black"/>
<path fill-rule="evenodd" clip-rule="evenodd" d="M12.9104 9.61937C12.5277 10.0245 12.3027 10.6519 12.3027 11.4662V40.5335C12.3027 41.3478 12.5277 41.9752 12.9104 42.3803L13.0078 42.475L29.2909 26.1919V25.8078L13.0078 9.52466L12.9104 9.61937Z" fill="#00D7FE"/>
<mask id="mask0_78_21705" style="mask-type:alpha" maskUnits="userSpaceOnUse" x="29" y="20" width="14" height="12">
<path d="M34.717 31.6217L29.291 26.1918V25.8077L34.7196 20.3792L41.2729 24.1017C43.1091 25.1461 43.1091 26.8535 41.2729 27.8966L34.8419 31.5507L34.717 31.6217Z" fill="white"/>
</mask>
<g mask="url(#mask0_78_21705)">
<path fill-rule="evenodd" clip-rule="evenodd" d="M34.717 31.6217L29.291 26.1918V25.8077L34.7196 20.3792L41.2729 24.1017C43.1091 25.1461 43.1091 26.8535 41.2729 27.8966L34.8419 31.5507L34.717 31.6217Z" fill="url(#paint0_linear_78_21705)"/>
</g>
<mask id="mask1_78_21705" style="mask-type:alpha" maskUnits="userSpaceOnUse" x="12" y="25" width="23" height="18">
<path d="M34.8416 31.5508L29.2906 25.9999L12.9102 42.3804C13.5165 43.021 14.5162 43.0999 15.6422 42.4606L34.8416 31.5508Z" fill="white"/>
</mask>
<g mask="url(#mask1_78_21705)">
<path fill-rule="evenodd" clip-rule="evenodd" d="M34.8416 31.5508L29.2906 25.9999L12.9102 42.3804C13.5165 43.021 14.5162 43.0999 15.6422 42.4606L34.8416 31.5508Z" fill="url(#paint1_linear_78_21705)"/>
</g>
<mask id="mask2_78_21705" style="mask-type:alpha" maskUnits="userSpaceOnUse" x="12" y="9" width="23" height="17">
<path d="M34.8416 20.4489L15.6422 9.53909C14.5162 8.89982 13.5165 8.97874 12.9102 9.61933L29.2906 25.9998L34.8416 20.4489Z" fill="white"/>
</mask>
<g mask="url(#mask2_78_21705)">
<path fill-rule="evenodd" clip-rule="evenodd" d="M34.8416 20.4489L15.6422 9.53909C14.5162 8.89982 13.5165 8.97874 12.9102 9.61933L29.2906 25.9998L34.8416 20.4489Z" fill="url(#paint2_linear_78_21705)"/>
</g>
<path fill-rule="evenodd" clip-rule="evenodd" d="M137.16 40.4073H139.615V23.9637H137.16V40.4073ZM159.268 29.8869L156.454 37.0163H156.37L153.45 29.8869H150.806L155.185 39.8509L152.688 45.3939H155.25L161.997 29.8869H159.268ZM145.349 38.5395C144.544 38.5395 143.423 38.1383 143.423 37.1438C143.423 35.8745 144.82 35.3878 146.025 35.3878C147.105 35.3878 147.611 35.6206 148.267 35.9376C148.077 37.4609 146.765 38.5395 145.349 38.5395ZM145.645 29.5278C143.867 29.5278 142.027 30.3104 141.266 32.0454L143.444 32.9543C143.91 32.0454 144.776 31.7481 145.687 31.7481C146.956 31.7481 148.246 32.5097 148.267 33.8646V34.033C147.823 33.7791 146.872 33.3989 145.708 33.3989C143.36 33.3989 140.968 34.6893 140.968 37.1004C140.968 39.3011 142.894 40.7191 145.051 40.7191C146.702 40.7191 147.611 39.9785 148.183 39.1103H148.267V40.3797H150.636V34.0764C150.636 31.1562 148.458 29.5278 145.645 29.5278ZM130.476 31.8889H126.985V26.2525H130.476C132.311 26.2525 133.352 27.7717 133.352 29.07C133.352 30.3446 132.311 31.8889 130.476 31.8889ZM130.412 23.9637H124.531V40.4073H126.985V34.1777H130.412C133.133 34.1777 135.807 32.2072 135.807 29.07C135.807 25.9328 133.133 23.9637 130.412 23.9637ZM98.342 38.5421C96.6465 38.5421 95.2272 37.1228 95.2272 35.1734C95.2272 33.203 96.6465 31.7613 98.342 31.7613C100.016 31.7613 101.329 33.203 101.329 35.1734C101.329 37.1228 100.016 38.5421 98.342 38.5421ZM101.16 30.8076H101.075C100.524 30.1513 99.4654 29.558 98.1302 29.558C95.3324 29.558 92.7687 32.0152 92.7687 35.1734C92.7687 38.3093 95.3324 40.7467 98.1302 40.7467C99.4654 40.7467 100.524 40.1534 101.075 39.4747H101.16V40.2797C101.16 42.4212 100.017 43.5656 98.1723 43.5656C96.6675 43.5656 95.7349 42.4843 95.3535 41.5728L93.2133 42.4633C93.8276 43.947 95.46 45.7688 98.1723 45.7688C101.054 45.7688 103.492 44.0733 103.492 39.9417V29.8961H101.16V30.8076ZM105.187 40.4073H107.646V23.9624H105.187V40.4073ZM111.268 34.9827C111.205 32.8215 112.943 31.7192 114.192 31.7192C115.168 31.7192 115.994 32.2059 116.269 32.9057L111.268 34.9827ZM118.898 33.1175C118.432 31.8678 117.011 29.558 114.108 29.558C111.226 29.558 108.832 31.8244 108.832 35.1524C108.832 38.2882 111.205 40.7467 114.383 40.7467C116.948 40.7467 118.432 39.1787 119.046 38.2672L117.139 36.9952C116.504 37.9278 115.634 38.5421 114.383 38.5421C113.134 38.5421 112.243 37.9699 111.671 36.8479L119.151 33.7541L118.898 33.1175ZM59.3001 31.2746V33.6476H64.9786C64.8089 34.9827 64.3643 35.9574 63.6869 36.6361C62.8595 37.4622 61.5665 38.3724 59.3001 38.3724C55.8038 38.3724 53.0691 35.5549 53.0691 32.0586C53.0691 28.561 55.8038 25.7434 59.3001 25.7434C61.1863 25.7434 62.5636 26.4853 63.5803 27.4389L65.2548 25.7645C63.8342 24.4083 61.9493 23.3691 59.3001 23.3691C54.5108 23.3691 50.4844 27.2693 50.4844 32.0586C50.4844 36.8479 54.5108 40.7467 59.3001 40.7467C61.8848 40.7467 63.8342 39.8996 65.3601 38.3093C66.928 36.7413 67.416 34.5381 67.416 32.757C67.416 32.2059 67.3739 31.6982 67.2884 31.2746H59.3001ZM73.8732 38.5421C72.1777 38.5421 70.715 37.1438 70.715 35.1524C70.715 33.1385 72.1777 31.7613 73.8732 31.7613C75.5674 31.7613 77.0302 33.1385 77.0302 35.1524C77.0302 37.1438 75.5674 38.5421 73.8732 38.5421ZM73.8732 29.558C70.7781 29.558 68.2565 31.9099 68.2565 35.1524C68.2565 38.3724 70.7781 40.7467 73.8732 40.7467C76.967 40.7467 79.4886 38.3724 79.4886 35.1524C79.4886 31.9099 76.967 29.558 73.8732 29.558ZM86.1234 38.5421C84.4279 38.5421 82.9652 37.1438 82.9652 35.1524C82.9652 33.1385 84.4279 31.7613 86.1234 31.7613C87.8189 31.7613 89.2803 33.1385 89.2803 35.1524C89.2803 37.1438 87.8189 38.5421 86.1234 38.5421ZM86.1234 29.558C83.0296 29.558 80.508 31.9099 80.508 35.1524C80.508 38.3724 83.0296 40.7467 86.1234 40.7467C89.2172 40.7467 91.7388 38.3724 91.7388 35.1524C91.7388 31.9099 89.2172 29.558 86.1234 29.558Z" fill="#FFFFFE"/>
<path d="M57.6811 13.0782V16.1592C57.577 16.3133 57.4113 16.4867 57.184 16.6794C56.9566 16.8683 56.6425 17.034 56.2418 17.1766C55.8448 17.3153 55.3323 17.3847 54.7041 17.3847C54.1916 17.3847 53.7195 17.296 53.2879 17.1187C52.8602 16.9376 52.4883 16.6756 52.1723 16.3326C51.8601 15.9858 51.6174 15.5657 51.4439 15.0725C51.2744 14.5753 51.1896 14.0127 51.1896 13.3845V12.7314C51.1896 12.1032 51.2628 11.5425 51.4093 11.0492C51.5595 10.556 51.7792 10.1378 52.0682 9.79486C52.3573 9.44803 52.7118 9.18598 53.1318 9.00871C53.5519 8.82759 54.0336 8.73703 54.577 8.73703C55.2205 8.73703 55.7581 8.84878 56.1897 9.0723C56.6252 9.29195 56.9643 9.59639 57.2071 9.98561C57.4537 10.3748 57.6117 10.818 57.6811 11.3151H56.5655C56.5154 11.0107 56.4152 10.7332 56.2649 10.4827C56.1184 10.2322 55.9084 10.0319 55.6348 9.88157C55.3612 9.72742 55.0086 9.65035 54.577 9.65035C54.1877 9.65035 53.8506 9.72164 53.5654 9.86422C53.2802 10.0068 53.0451 10.2111 52.8602 10.477C52.6752 10.7429 52.5365 11.0646 52.444 11.4423C52.3553 11.82 52.311 12.2458 52.311 12.7198V13.3845C52.311 13.8701 52.3669 14.3036 52.4786 14.6852C52.5943 15.0667 52.758 15.3923 52.97 15.6621C53.1819 15.928 53.4344 16.1303 53.7272 16.269C54.024 16.4077 54.3515 16.4771 54.7099 16.4771C55.1068 16.4771 55.4286 16.4444 55.6753 16.3788C55.9219 16.3095 56.1146 16.2286 56.2533 16.1361C56.392 16.0397 56.498 15.9492 56.5712 15.8644V13.9799H54.6232V13.0782H57.6811ZM64.5227 16.3615V17.269H60.0659V16.3615H64.5227ZM60.2913 8.85264V17.269H59.1757V8.85264H60.2913ZM63.9331 12.4712V13.3788H60.0659V12.4712H63.9331ZM64.4649 8.85264V9.76596H60.0659V8.85264H64.4649ZM68.7746 8.85264V17.269H67.6763V8.85264H68.7746ZM71.4798 8.85264V9.76596H64.9768V8.85264H71.4798ZM75.92 8.85264V17.269H74.8043V8.85264H75.92ZM80.5303 8.85264V17.269H79.432V8.85264H80.5303ZM83.2355 8.85264V9.76596H76.7325V8.85264H83.2355ZM92.959 12.7949V13.3267C92.959 13.9587 92.88 14.5252 92.722 15.0262C92.564 15.5272 92.3367 15.953 92.0399 16.3037C91.7432 16.6544 91.3867 16.9222 90.9705 17.1072C90.5582 17.2922 90.0957 17.3847 89.5832 17.3847C89.0861 17.3847 88.6294 17.2922 88.2132 17.1072C87.8009 16.9222 87.4425 16.6544 87.1381 16.3037C86.8375 15.953 86.6043 15.5272 86.4386 15.0262C86.2729 14.5252 86.1901 13.9587 86.1901 13.3267V12.7949C86.1901 12.1629 86.271 11.5984 86.4328 11.1013C86.5985 10.6003 86.8317 10.1744 87.1323 9.82376C87.4329 9.46922 87.7893 9.19947 88.2017 9.01449C88.6179 8.82951 89.0745 8.73703 89.5716 8.73703C90.0842 8.73703 90.5466 8.82951 90.959 9.01449C91.3752 9.19947 91.7316 9.46922 92.0284 9.82376C92.3289 10.1744 92.5582 10.6003 92.7162 11.1013C92.8781 11.5984 92.959 12.1629 92.959 12.7949ZM91.8549 13.3267V12.7834C91.8549 12.2824 91.8029 11.8392 91.6989 11.4539C91.5987 11.0685 91.4503 10.7448 91.2538 10.4827C91.0572 10.2207 90.8164 10.0222 90.5312 9.88735C90.2499 9.75247 89.93 9.68503 89.5716 9.68503C89.2248 9.68503 88.9107 9.75247 88.6294 9.88735C88.352 10.0222 88.113 10.2207 87.9126 10.4827C87.7161 10.7448 87.5639 11.0685 87.456 11.4539C87.3481 11.8392 87.2941 12.2824 87.2941 12.7834V13.3267C87.2941 13.8316 87.3481 14.2786 87.456 14.6678C87.5639 15.0532 87.718 15.3788 87.9184 15.6447C88.1227 15.9068 88.3635 16.1052 88.641 16.2401C88.9223 16.375 89.2364 16.4424 89.5832 16.4424C89.9455 16.4424 90.2672 16.375 90.5485 16.2401C90.8299 16.1052 91.0669 15.9068 91.2596 15.6447C91.4561 15.3788 91.6045 15.0532 91.7046 14.6678C91.8048 14.2786 91.8549 13.8316 91.8549 13.3267ZM100.749 8.85264V17.269H99.6272L95.3901 10.7775V17.269H94.2744V8.85264H95.3901L99.6445 15.3615V8.85264H100.749Z" fill="white"/>
<rect x="0.657692" y="0.65757" width="169.685" height="51.3" rx="7.23462" stroke="#A6A6A6" stroke-width="1.31538"/>
<defs>
<linearGradient id="paint0_linear_78_21705" x1="40.0782" y1="26.0002" x2="29.291" y2="26.0002" gradientUnits="userSpaceOnUse">
<stop stop-color="#FFBC00"/>
<stop offset="1" stop-color="#FFDA03"/>
</linearGradient>
<linearGradient id="paint1_linear_78_21705" x1="31.8249" y1="31.223" x2="17.7456" y2="42.828" gradientUnits="userSpaceOnUse">
<stop stop-color="#E22652"/>
<stop offset="1" stop-color="#FF3A44"/>
</linearGradient>
<linearGradient id="paint2_linear_78_21705" x1="15.3905" y1="11.5913" x2="24.7774" y2="19.8453" gradientUnits="userSpaceOnUse">
<stop stop-color="#0ED574"/>
<stop offset="1" stop-color="#07F076"/>
</linearGradient>
</defs>
</svg>
